<svg width="192" height="132" viewBox="0 0 192 132" fill="none" xmlns="http://www.w3.org/2000/svg">
<path d="M191.995 66.0002C191.988 78.1294 188.67 90.0228 182.403 100.377C176.137 110.731 167.164 119.146 156.467 124.701C155.841 125.032 155.205 125.347 154.564 125.653C154.276 125.795 153.993 125.928 153.7 126.06C151.873 126.905 149.998 127.663 148.075 128.335C146.561 128.87 145.005 129.353 143.435 129.771C128.603 133.753 112.856 132.371 98.9297 125.866C98.3592 125.597 97.7886 125.322 97.2281 125.037C86.8012 119.779 77.956 111.81 71.6064 101.953C65.2569 92.0957 61.6334 80.7083 61.1102 68.9672C60.587 57.2261 63.1831 45.557 68.6303 35.1658C74.0775 24.7745 82.1783 16.038 92.0955 9.8588C102.013 3.67961 113.387 0.281924 125.043 0.0168C136.698 -0.248324 148.213 2.62873 158.396 8.35069C168.58 14.0727 177.063 22.432 182.97 32.565C188.877 42.698 191.992 54.2371 191.995 65.9901V66.0002Z" fill="url(#paint0_linear_1_339)"/>
<path d="M100.854 106.743L93.6228 95.3557C93.6228 95.3557 113.654 72.0118 115.658 70.6324C115.658 70.6324 105.554 87.7203 100.854 106.743Z" fill="url(#paint1_linear_1_339)"/>
<path d="M93.6228 95.3557L79.9895 107.572L54.9092 95.3557L35.7216 96.4144C35.7216 96.4144 47.6734 100.487 51.0363 100.319L54.4043 100.151C54.4043 100.151 75.0007 120.171 79.737 121.698C84.4734 123.225 100.031 111.252 100.031 111.252L100.934 106.778L93.6228 95.3557Z" fill="url(#paint2_linear_1_339)"/>
<path d="M131.241 67.8683C129.346 68.7931 127.309 69.3852 125.217 69.6194C122.798 69.9859 119.122 68.6319 119.122 68.6319C121.899 66.4278 121.253 61.2307 121.253 61.2307L121.314 61.2001C124.278 60.9711 126.757 59.276 128.489 57.637C127.863 62.0858 131.241 67.8683 131.241 67.8683Z" fill="url(#paint3_linear_1_339)"/>
<path d="M131.241 51.3149V54.3691C130.452 55.5556 129.53 56.6469 128.494 57.6217C126.762 59.2659 124.283 60.9609 121.319 61.1849C119.972 61.2886 118.62 61.0887 117.36 60.5995C109.281 57.5454 114.962 41.3839 114.962 41.3839C117.527 34.8073 129.14 37.9887 129.14 37.9887C130.695 39.8568 130.993 45.0743 130.933 45.5833C130.674 46.2985 130.335 46.9816 129.923 47.6194C129.923 47.6194 132.129 45.5223 132.887 46.917C133.644 48.3117 131.241 51.3149 131.241 51.3149Z" fill="url(#paint4_linear_1_339)"/>
<path d="M131.241 54.3792V51.3251C131.241 51.3251 133.639 48.3473 132.882 46.9424C132.124 45.5375 129.918 47.6449 129.918 47.6449C130.33 47.007 130.669 46.3239 130.928 45.6088C130.988 45.0997 130.736 40.1775 129.135 38.0141C129.135 38.0141 117.522 34.8327 114.957 41.4093C114.957 41.4093 111.634 40.5593 108.771 36.5736C104.09 30.053 109.68 29.2538 115.219 30.5111C121.94 32.0382 128.676 27.0294 136.376 32.1196C144.076 37.2099 137.174 48.78 131.241 54.3792Z" fill="#262F72"/>
<g filter="url(#filter0_d_1_339)">
<path d="M78.3838 25.9604H12.8681C11.2841 25.9604 10 27.2549 10 28.8517V89.7513C10 91.3481 11.2841 92.6425 12.8681 92.6425H78.3838C79.9678 92.6425 81.2519 91.3481 81.2519 89.7513V28.8517C81.2519 27.2549 79.9678 25.9604 78.3838 25.9604Z" fill="white"/>
</g>
<path d="M20.9117 38.0447C20.7299 38.2521 20.4962 38.4068 20.2351 38.4926C19.9235 38.6016 19.5954 38.655 19.2656 38.6504C18.9234 38.6583 18.5852 38.5739 18.2861 38.4061C18.0027 38.2401 17.7756 37.9917 17.6347 37.6934C17.4742 37.3497 17.3931 36.9738 17.3974 36.5939V36.2987C17.3882 35.9123 17.4623 35.5285 17.6145 35.1738C17.7453 34.8729 17.9637 34.6191 18.2406 34.4459C18.5757 34.2629 18.9545 34.1771 19.335 34.1977C19.7156 34.2184 20.083 34.3448 20.3967 34.5629C20.6979 34.8406 20.8792 35.2262 20.9016 35.637H20.0382C20.0186 35.4295 19.9254 35.2361 19.7756 35.0923C19.6169 34.9697 19.4199 34.9083 19.2202 34.9193C19.0856 34.9117 18.9513 34.939 18.8302 34.9988C18.7091 35.0585 18.6051 35.1485 18.5284 35.2603C18.3512 35.5685 18.2687 35.9228 18.2911 36.2783V36.5532C18.2692 36.9114 18.3593 37.2674 18.5486 37.5713C18.636 37.6874 18.7503 37.7801 18.8814 37.8414C19.0126 37.9026 19.1567 37.9305 19.301 37.9225C19.5566 37.945 19.8112 37.8686 20.0129 37.7087V36.9604H19.2051V36.3038H20.9016L20.9117 38.0447Z" fill="#64B5F6"/>
<path d="M72.8294 34.1913H26.4054C25.8393 34.1913 25.3804 34.654 25.3804 35.2247V38.9813C25.3804 39.552 25.8393 40.0146 26.4054 40.0146H72.8294C73.3955 40.0146 73.8545 39.552 73.8545 38.9813V35.2247C73.8545 34.654 73.3955 34.1913 72.8294 34.1913Z" fill="#E7EEF2"/>
<path d="M73.8545 43.3029H25.3804V44.3209H73.8545V43.3029Z" fill="#BBDEFB"/>
<path d="M73.8545 45.5935H25.3804V46.6116H73.8545V45.5935Z" fill="#E7E8E9"/>
<path d="M73.8545 47.8841H25.3804V48.9021H73.8545V47.8841Z" fill="#E7E8E9"/>
<path d="M73.8545 50.1747H25.3804V51.1927H73.8545V50.1747Z" fill="#E7E8E9"/>
<path d="M73.8545 54.4607H25.3804V55.4787H73.8545V54.4607Z" fill="#BBDEFB"/>
<path d="M73.8545 56.7513H25.3804V57.7693H73.8545V56.7513Z" fill="#E7E8E9"/>
<path d="M73.8545 59.0419H25.3804V60.0599H73.8545V59.0419Z" fill="#E7E8E9"/>
<path d="M73.8545 61.3325H25.3804V62.3506H73.8545V61.3325Z" fill="#E7E8E9"/>
<path d="M73.8545 65.4912H25.3804V66.5093H73.8545V65.4912Z" fill="#BBDEFB"/>
<path d="M73.8545 67.7818H25.3804V68.7999H73.8545V67.7818Z" fill="#E7E8E9"/>
<path d="M73.8545 70.0724H25.3804V71.0905H73.8545V70.0724Z" fill="#E7E8E9"/>
<path d="M73.8545 72.363H25.3804V73.3811H73.8545V72.363Z" fill="#E7E8E9"/>
<path d="M73.8545 76.5218H25.3804V77.5398H73.8545V76.5218Z" fill="#BBDEFB"/>
<path d="M73.8545 78.8124H25.3804V79.8304H73.8545V78.8124Z" fill="#E7E8E9"/>
<path d="M73.8545 81.103H25.3804V82.121H73.8545V81.103Z" fill="#E7E8E9"/>
<path d="M73.8545 83.3936H25.3804V84.4116H73.8545V83.3936Z" fill="#E7E8E9"/>
<path d="M148.707 92.4593C152.16 102.823 154.72 114.821 156.468 124.701C155.841 125.032 155.205 125.347 154.564 125.653C154.276 125.795 153.993 125.928 153.7 126.06C151.873 126.905 149.998 127.663 148.075 128.335C146.561 128.87 145.005 129.353 143.435 129.771C128.603 133.753 112.856 132.371 98.9298 125.866C98.3592 125.597 97.7886 125.322 97.2281 125.037C98.238 119.809 99.4398 113.665 100.849 106.748C101.36 104.24 101.897 101.63 102.459 98.9188C105.353 85.0275 109.503 77.4634 112.932 73.3658L112.967 73.3251C113.618 72.5461 114.324 71.8146 115.078 71.1363C115.099 71.1116 115.122 71.0894 115.148 71.0701C115.32 70.9174 115.492 70.7749 115.653 70.6374C117.719 68.9424 119.122 68.6319 119.122 68.6319L119.249 68.6777H119.319C120.416 69.1137 121.566 69.3996 122.738 69.5278H122.935H122.965C123.713 69.6 124.466 69.6119 125.217 69.5634H125.262C127.346 69.4295 129.376 68.8389 131.211 67.8327C133.361 68.5499 135.387 69.6028 137.214 70.953C142.435 74.8165 152.953 88.9826 152.953 88.9826L148.707 92.4593Z" fill="url(#paint5_linear_1_339)"/>
<path d="M167.94 111.802C167.909 113.217 166.632 116.088 164.764 119.57C162.128 121.487 159.353 123.202 156.462 124.701C155.836 125.032 155.2 125.347 154.559 125.653C154.271 125.795 153.988 125.928 153.695 126.06C151.867 126.905 149.992 127.663 148.07 128.335L152.948 112.662L140.325 99.3006L148.702 92.4593L152.948 88.9929C152.948 88.9929 168.071 106.33 167.94 111.802Z" fill="url(#paint6_linear_1_339)"/>
<defs>
<filter id="filter0_d_1_339" x="0" y="19.9604" width="91.2518" height="86.6821" filterUnits="userSpaceOnUse" color-interpolation-filters="sRGB">
<feFlood flood-opacity="0" result="BackgroundImageFix"/>
<feColorMatrix in="SourceAlpha" type="matrix" values="0 0 0 0 0 0 0 0 0 0 0 0 0 0 0 0 0 0 127 0" result="hardAlpha"/>
<feOffset dy="4"/>
<feGaussianBlur stdDeviation="5"/>
<feColorMatrix type="matrix" values="0 0 0 0 0 0 0 0 0 0 0 0 0 0 0 0 0 0 0.15 0"/>
<feBlend mode="normal" in2="BackgroundImageFix" result="effect1_dropShadow_1_339"/>
<feBlend mode="normal" in="SourceGraphic" in2="effect1_dropShadow_1_339" result="shape"/>
</filter>
<linearGradient id="paint0_linear_1_339" x1="126.788" y1="7.16766" x2="124.512" y2="137.263" gradientUnits="userSpaceOnUse">
<stop stop-color="white" stop-opacity="0"/>
<stop offset="1" stop-color="#64B5F6" stop-opacity="0.6"/>
</linearGradient>
<linearGradient id="paint1_linear_1_339" x1="106.231" y1="68.2094" x2="102.383" y2="103.453" gradientUnits="userSpaceOnUse">
<stop stop-color="#42A5F5"/>
<stop offset="1" stop-color="#1565C0"/>
</linearGradient>
<linearGradient id="paint2_linear_1_339" x1="62.5338" y1="105.322" x2="104.455" y2="110.834" gradientUnits="userSpaceOnUse">
<stop stop-color="#FFE082"/>
<stop offset="1" stop-color="#FFA726"/>
</linearGradient>
<linearGradient id="paint3_linear_1_339" x1="9417.78" y1="2544.52" x2="9420.77" y2="2315.66" gradientUnits="userSpaceOnUse">
<stop stop-color="#FFE082"/>
<stop offset="1" stop-color="#FFA726"/>
</linearGradient>
<linearGradient id="paint4_linear_1_339" x1="14987.3" y1="4075.82" x2="15780.5" y2="4075.82" gradientUnits="userSpaceOnUse">
<stop stop-color="#FFE082"/>
<stop offset="1" stop-color="#FFA726"/>
</linearGradient>
<linearGradient id="paint5_linear_1_339" x1="42948.6" y1="15103.6" x2="48847.7" y2="20773.6" gradientUnits="userSpaceOnUse">
<stop stop-color="#42A5F5"/>
<stop offset="1" stop-color="#1565C0"/>
</linearGradient>
<linearGradient id="paint6_linear_1_339" x1="23009.9" y1="12265.9" x2="22606.5" y2="9747.27" gradientUnits="userSpaceOnUse">
<stop stop-color="#FFE082"/>
<stop offset="1" stop-color="#FFA726"/>
</linearGradient>
</defs>
</svg>
