<svg width="171" height="132" viewBox="0 0 171 132" fill="none" xmlns="http://www.w3.org/2000/svg">
<path d="M171 65.5209C170.993 77.5582 167.645 89.3614 161.32 99.6371C154.996 109.913 145.941 118.264 135.147 123.777C134.661 124.029 134.172 124.272 133.679 124.504L133.577 124.555L133.226 124.721C132.935 124.863 132.65 124.994 132.354 125.126C130.51 125.964 128.617 126.717 126.678 127.384C125.577 127.764 124.464 128.116 123.34 128.439L121.995 128.808C107.027 132.76 91.1354 131.389 77.081 124.934C76.5052 124.666 75.9294 124.393 75.3638 124.11L74.3446 123.605C64.2575 118.365 55.7007 110.639 49.498 101.171C48.8457 100.184 48.2241 99.1734 47.633 98.1395C47.1064 97.2403 46.5968 96.3293 46.1042 95.4066C41.3168 86.1604 38.8272 75.914 38.8428 65.5209C38.8428 64.295 38.8768 63.0758 38.9448 61.8634C39.9001 44.8313 47.5204 28.8405 60.1848 17.2922C72.8493 5.74384 89.5587 -0.450861 106.759 0.0255802C123.96 0.502021 140.294 7.61201 152.288 19.8434C164.283 32.0747 170.99 48.4624 170.985 65.5209H171Z" fill="url(#paint0_linear_1_377)"/>
<path d="M91.9452 63.192C91.9452 63.192 77.1676 56.246 75.8835 46.6882C74.5994 37.1304 75.5013 27.997 82.8646 25.4409C82.8646 25.4409 87.5221 10.7203 104.032 16.6358C120.542 22.5513 117.938 40.313 126.963 42.4397C135.987 44.5665 152.839 35.6099 156.054 46.5367C159.27 57.4634 148.696 56.7966 141.669 66.0715C134.642 75.3463 145.496 80.2162 143.509 86.6015C141.521 92.9868 134.015 97.3767 134.015 97.3767L91.9452 63.192Z" fill="url(#paint1_linear_1_377)"/>
<path d="M71.7101 84.1565L75.8835 95.4065H76.337L82.8646 66.0715C78.7422 69.6531 71.7101 84.1565 71.7101 84.1565Z" fill="url(#paint2_linear_1_377)"/>
<path d="M64.3825 99.6752L61.7378 100.994C58.4562 102.944 53.5541 102.388 53.5541 102.388C56.2039 105.343 71.1241 108.687 75.3179 108.601L76.0924 98.1344H66.7979L64.3825 99.6752Z" fill="url(#paint3_linear_1_377)"/>
<path d="M133.679 124.489L133.577 124.54L133.225 124.706C132.935 124.848 132.65 124.979 132.354 125.11C130.509 125.949 128.617 126.702 126.678 127.368C125.577 127.749 124.464 128.101 123.34 128.424L121.995 128.793C107.027 132.745 91.1353 131.374 77.081 124.918C76.5052 124.651 75.9294 124.378 75.3637 124.095L74.3446 123.59C74.4873 119.255 74.7064 114.067 75.0274 108.596C75.2313 105.176 75.4809 101.645 75.7765 98.1395C75.8529 97.2251 75.9345 96.3158 76.016 95.4065C77.2186 82.4844 79.1448 70.5018 82.2328 66.6928L82.2786 66.6423C82.6707 66.1074 83.2238 65.7095 83.8583 65.5057C88.317 64.4549 91.4611 64.1013 91.9554 63.192C92.4496 62.2827 91.9554 60.4944 91.9554 60.4944L92.842 60.3732C94.1312 60.1812 96.6332 59.7771 99.0027 59.1709C99.0177 59.1755 99.0337 59.1755 99.0486 59.1709C101.143 58.6304 103.125 57.9332 104.093 57.0947L106.081 62.3332C106.081 62.3332 121.026 60.4591 126.861 66.0917C126.897 66.1179 126.929 66.1485 126.958 66.1826C127.019 66.2377 127.077 66.2968 127.131 66.3594C127.478 66.7233 127.787 67.1211 128.053 67.5466C129.954 70.5776 131.299 82.742 132.232 95.937C132.446 98.968 132.639 102.1 132.808 105.166C133.195 112.249 133.485 119.109 133.679 124.489Z" fill="url(#paint4_linear_1_377)"/>
<path opacity="0.15" d="M133.577 124.555L133.225 124.721C132.935 124.863 132.65 124.994 132.354 125.126C130.509 125.964 128.617 126.717 126.678 127.384C125.577 127.764 124.464 128.116 123.34 128.439C116.456 121.17 113.724 111.734 113.724 111.734L132.797 105.166L133.577 124.555Z" fill="black"/>
<path d="M126.856 66.0715C133.761 72.7902 135.264 86.8945 133.99 97.3918C132.716 107.889 130.351 117.72 125.439 117.417C120.527 117.114 103.528 105.424 96.9593 99.0488L100.796 91.7491L114.677 97.4828V82.2015L126.856 66.0715Z" fill="url(#paint5_linear_1_377)"/>
<path d="M126.856 66.0715C133.761 72.7902 135.264 86.8945 133.99 97.3918C132.716 107.889 130.351 117.72 125.439 117.417C120.527 117.114 103.528 105.424 96.9593 99.0488L100.796 91.7491L114.677 97.4828V82.2015L126.856 66.0715Z" fill="url(#paint6_linear_1_377)"/>
<g filter="url(#filter0_d_1_377)">
<path d="M91.1451 95.4065H27.4539V98.1395H91.1451V95.4065Z" fill="url(#paint7_linear_1_377)"/>
<path d="M63.4347 61.8634H15L27.4539 95.4066H75.8835L63.4347 61.8634Z" fill="url(#paint8_linear_1_377)"/>
</g>
<path d="M41.9971 98.1395C41.9971 98.1395 50.354 102.287 55.6638 102.388C60.9735 102.489 66.803 98.1395 66.803 98.1395H41.9971Z" fill="url(#paint9_linear_1_377)"/>
<path d="M100.796 91.7491C100.796 91.7491 93.4484 88.0715 90.284 87.6674C87.1196 87.2632 77.295 95.4065 77.295 95.4065H91.1554L96.9747 99.0488L100.796 91.7491Z" fill="url(#paint10_linear_1_377)"/>
<path d="M103.472 48.8099C103.508 51.5761 103.712 54.3376 104.083 57.0795C100.796 58.9133 96.9492 59.8983 92.8319 60.3782L92.5924 57.0795L92.4497 55.0588V54.9932C91.656 54.9755 90.8735 54.8039 90.1464 54.488C85.173 52.3612 84.1029 41.9649 84.1029 41.9649C86.0953 41.8841 88.689 38.3226 88.689 38.3226C90.1413 40.5252 96.8779 44.7787 100.786 43.637C104.695 42.4953 104.389 39.7624 104.389 39.7624C105.096 40.0579 105.707 40.5402 106.157 41.1566C106.606 41.7731 106.876 42.5 106.937 43.2581C107.146 45.9254 103.472 48.8099 103.472 48.8099Z" fill="url(#paint11_linear_1_377)"/>
<path opacity="0.15" d="M100.134 51.7449C99.2117 53.2907 95.0383 55.7509 92.5975 57.0896L92.4548 55.0689C92.6076 55.0689 92.7554 55.0184 92.8981 54.9881C94.8908 54.6385 96.8035 53.9351 98.5441 52.9119C98.5649 52.9038 98.584 52.8918 98.6002 52.8765C99.1233 52.5699 99.6133 52.2111 100.063 51.8056L100.134 51.7449Z" fill="black"/>
<path opacity="0.15" d="M108.95 95.1236L119.763 99.5085L114.667 95.8662V82.2267C114.667 82.2267 113.072 94.0779 108.95 95.1236Z" fill="black"/>
<defs>
<filter id="filter0_d_1_377" x="0" y="46.8634" width="116.145" height="76.2761" filterUnits="userSpaceOnUse" color-interpolation-filters="sRGB">
<feFlood flood-opacity="0" result="BackgroundImageFix"/>
<feColorMatrix in="SourceAlpha" type="matrix" values="0 0 0 0 0 0 0 0 0 0 0 0 0 0 0 0 0 0 127 0" result="hardAlpha"/>
<feOffset dx="5" dy="5"/>
<feGaussianBlur stdDeviation="10"/>
<feColorMatrix type="matrix" values="0 0 0 0 0 0 0 0 0 0 0 0 0 0 0 0 0 0 0.2 0"/>
<feBlend mode="normal" in2="BackgroundImageFix" result="effect1_dropShadow_1_377"/>
<feBlend mode="normal" in="SourceGraphic" in2="effect1_dropShadow_1_377" result="shape"/>
</filter>
<linearGradient id="paint0_linear_1_377" x1="105.193" y1="7.11448" x2="102.971" y2="136.246" gradientUnits="userSpaceOnUse">
<stop stop-color="white" stop-opacity="0"/>
<stop offset="1" stop-color="#64B5F6" stop-opacity="0.6"/>
</linearGradient>
<linearGradient id="paint1_linear_1_377" x1="75.3994" y1="56.3015" x2="156.656" y2="56.3015" gradientUnits="userSpaceOnUse">
<stop stop-color="#EF9A9A"/>
<stop offset="1" stop-color="#D81B60"/>
</linearGradient>
<linearGradient id="paint2_linear_1_377" x1="76.6836" y1="81.9034" x2="74.2744" y2="109.535" gradientUnits="userSpaceOnUse">
<stop stop-color="#7E57C2"/>
<stop offset="1" stop-color="#4527A0"/>
</linearGradient>
<linearGradient id="paint3_linear_1_377" x1="6813.02" y1="2526.45" x2="6789.49" y2="3102.45" gradientUnits="userSpaceOnUse">
<stop stop-color="#7E57C2"/>
<stop offset="1" stop-color="#4527A0"/>
</linearGradient>
<linearGradient id="paint4_linear_1_377" x1="20341.2" y1="14857.1" x2="24468.7" y2="22491.9" gradientUnits="userSpaceOnUse">
<stop stop-color="#7E57C2"/>
<stop offset="1" stop-color="#4527A0"/>
</linearGradient>
<linearGradient id="paint5_linear_1_377" x1="13960.4" y1="9769.55" x2="17624.5" y2="15925.1" gradientUnits="userSpaceOnUse">
<stop stop-color="#7E57C2"/>
<stop offset="1" stop-color="#4527A0"/>
</linearGradient>
<linearGradient id="paint6_linear_1_377" x1="118.759" y1="71.7698" x2="113.038" y2="118.833" gradientUnits="userSpaceOnUse">
<stop offset="0.14" stop-color="#7E57C2" stop-opacity="0"/>
<stop offset="0.26" stop-color="#724DBB" stop-opacity="0.21"/>
<stop offset="0.48" stop-color="#5F3DAF" stop-opacity="0.55"/>
<stop offset="0.66" stop-color="#5131A7" stop-opacity="0.79"/>
<stop offset="0.81" stop-color="#482AA2" stop-opacity="0.94"/>
<stop offset="0.91" stop-color="#4527A0"/>
</linearGradient>
<linearGradient id="paint7_linear_1_377" x1="27.4539" y1="96.7705" x2="91.1451" y2="96.7705" gradientUnits="userSpaceOnUse">
<stop stop-color="#D2D4D5"/>
<stop offset="1" stop-color="#AAACAE"/>
</linearGradient>
<linearGradient id="paint8_linear_1_377" x1="537.989" y1="4197.73" x2="4142.02" y2="8331.07" gradientUnits="userSpaceOnUse">
<stop stop-color="#D2D4D5"/>
<stop offset="1" stop-color="#AAACAE"/>
</linearGradient>
<linearGradient id="paint9_linear_1_377" x1="43.5767" y1="93.5779" x2="63.884" y2="102.359" gradientUnits="userSpaceOnUse">
<stop stop-color="#FFF8E1"/>
<stop offset="1" stop-color="#FFCC80"/>
</linearGradient>
<linearGradient id="paint10_linear_1_377" x1="7875.06" y1="2940.75" x2="8393.29" y2="3508.99" gradientUnits="userSpaceOnUse">
<stop stop-color="#FFF8E1"/>
<stop offset="1" stop-color="#FFCC80"/>
</linearGradient>
<linearGradient id="paint11_linear_1_377" x1="8044.47" y1="3226.24" x2="8499.41" y2="4087.71" gradientUnits="userSpaceOnUse">
<stop stop-color="#FFF8E1"/>
<stop offset="1" stop-color="#FFCC80"/>
</linearGradient>
</defs>
</svg>
