<svg width="688" height="623" viewBox="0 0 688 623" fill="none" xmlns="http://www.w3.org/2000/svg">
<path opacity="0.4" d="M624.23 74.6537C479.455 5.76099 415.592 194.153 315.762 225.15C216.017 270.497 119.839 217.419 60.4517 262.918C-33.683 335.038 7.6338 461.207 67.8971 514.294C154.318 590.423 307.895 563.023 466.635 480.706C665.518 377.572 751.174 135.061 624.23 74.6537Z" fill="#98C3E8"/>
<path opacity="0.2" d="M143.123 149.743C148.123 162.243 133.123 181.743 111.623 188.243C93.1227 193.837 75.1227 193.243 70.1227 180.243C65.6996 168.743 79.6227 156.243 95.6227 149.743C111.623 143.243 138.123 137.243 143.123 149.743Z" fill="#98C3E8"/>
<path opacity="0.2" d="M306.623 124.243C302.732 114.304 316.438 91.1093 333.425 86.042C348.041 81.6818 361.734 71.4072 365.623 81.7435C369.063 90.8872 358.531 111.568 345.883 116.658C333.235 121.749 310.514 134.183 306.623 124.243Z" fill="#98C3E8"/>
<path opacity="0.2" d="M295.415 616.459C291.524 606.519 303.438 591.109 320.425 586.042C335.041 581.682 349.237 582.228 353.126 592.564C356.566 601.708 345.531 611.568 332.883 616.658C320.235 621.749 299.306 626.398 295.415 616.459Z" fill="#98C3E8"/>
<path opacity="0.2" d="M471.195 565.793C463.101 546.763 488.901 504.478 524.195 494.793C554.565 486.46 603.605 503.504 611.695 523.293C618.852 540.799 571.975 537.903 545.697 547.636C519.418 557.369 479.29 584.823 471.195 565.793Z" fill="#98C3E8"/>
<mask id="mask0_1_184" style="mask-type:alpha" maskUnits="userSpaceOnUse" x="20" y="63" width="647" height="491">
<path d="M606.584 76.1879C466.012 14.1125 409.665 196.723 314.764 229.267C220.316 275.583 126.741 227.328 70.9866 272.66C-17.3899 344.516 25.4834 464.46 84.6288 513.729C169.446 584.383 315.965 553.788 466.012 470.337C654.003 365.783 729.842 130.617 606.584 76.1879Z" fill="#98C3E8"/>
</mask>
<g mask="url(#mask0_1_184)">
<rect x="-85.4604" y="-17.3547" width="805.162" height="681.485" fill="url(#paint0_linear_1_184)"/>
<path d="M16.1313 199.711C89.9588 236.94 172.62 341.148 172.62 390.905C172.62 452.113 42.8438 545.922 -16.6809 599.137L491.278 631.949C473.189 550.97 427.517 370.943 455.31 330.96C491.278 279.217 636.829 291.837 718.439 301.303L740.524 70.9859C700.771 87.6024 611.799 135.348 563.212 122.728C518.238 111.047 431.963 60.6795 395.365 28.7086" stroke="white" stroke-opacity="0.2" stroke-width="15"/>
<path d="M206.064 142.92C226.256 248.088 281.153 440.881 339.206 370.713C411.771 283.003 469.192 169.423 523.459 244.512C566.872 304.584 630.73 423.086 657.232 474.829" stroke="white" stroke-opacity="0.2" stroke-width="15"/>
<path fill-rule="evenodd" clip-rule="evenodd" d="M433.623 204.244C433.623 208.662 430.041 212.244 425.623 212.244C421.204 212.244 417.623 208.662 417.623 204.244C417.623 199.825 421.204 196.244 425.623 196.244C430.041 196.244 433.623 199.825 433.623 204.244ZM102.623 377.244C107.041 377.244 110.623 373.662 110.623 369.244C110.623 364.825 107.041 361.244 102.623 361.244C98.2043 361.244 94.6226 364.825 94.6226 369.244C94.6226 373.662 98.2043 377.244 102.623 377.244ZM276.623 479.244C281.041 479.244 284.623 475.662 284.623 471.244C284.623 466.825 281.041 463.244 276.623 463.244C272.204 463.244 268.623 466.825 268.623 471.244C268.623 475.662 272.204 479.244 276.623 479.244ZM550.623 361.244C555.041 361.244 558.623 357.662 558.623 353.244C558.623 348.825 555.041 345.244 550.623 345.244C546.204 345.244 542.623 348.825 542.623 353.244C542.623 357.662 546.204 361.244 550.623 361.244Z" fill="white" fill-opacity="0.6"/>
<circle cx="72.6226" cy="456.244" r="18" stroke="white" stroke-opacity="0.4" stroke-width="8"/>
<circle cx="652.623" cy="179.244" r="18" stroke="white" stroke-opacity="0.4" stroke-width="8"/>
<circle cx="402.623" cy="412.244" r="18" stroke="white" stroke-opacity="0.4" stroke-width="8"/>
</g>
<g filter="url(#filter0_d_1_184)">
<rect x="452.623" y="133.244" width="88" height="88" rx="10" fill="white"/>
</g>
<g clip-path="url(#clip0_1_184)">
<path d="M492.623 193.244V181.244H500.623V193.244H510.623V177.244H516.623L496.623 159.244L476.623 177.244H482.623V193.244H492.623Z" fill="#5A98D0"/>
</g>
<g filter="url(#filter1_d_1_184)">
<path d="M440.045 10H412.615C408.829 10 405.761 12.2858 405.761 15.1054V35.5386C405.761 38.3583 408.829 40.6441 412.615 40.6441H440.045C443.83 40.6441 446.899 38.3583 446.899 35.5386V15.1054C446.899 12.2858 443.83 10 440.045 10Z" fill="#56CCF2"/>
</g>
<g clip-path="url(#clip1_1_184)">
<path d="M436.623 24.2509H432.453L435.693 21.8208L434.283 20.7557L429.623 24.2509H427.623V22.7508L432.283 19.2556L430.863 18.198L427.623 20.6282V17.5005H425.623V20.6282L422.383 18.198L420.963 19.2556L425.623 22.7508V24.2509H423.623L418.963 20.7557L417.553 21.8208L420.793 24.2509H416.623V25.751H420.793L417.553 28.1812L418.963 29.2463L423.623 25.751H425.623V27.2511L420.963 30.7463L422.383 31.8039L425.623 29.3738V32.5015H427.623V29.3738L430.863 31.8039L432.283 30.7463L427.623 27.2511V25.751H429.623L434.283 29.2463L435.693 28.1812L432.453 25.751H436.623V24.2509Z" fill="white"/>
</g>
<g filter="url(#filter2_d_1_184)">
<path d="M613.907 87.255H586.476C582.691 87.255 579.623 89.5408 579.623 92.3604V112.794C579.623 115.613 582.691 117.899 586.476 117.899H613.907C617.692 117.899 620.761 115.613 620.761 112.794V92.3604C620.761 89.5408 617.692 87.255 613.907 87.255Z" fill="#F2C94C"/>
</g>
<path d="M609.623 100.006C609.623 96.2556 605.623 93.2554 600.623 93.2554C595.623 93.2554 591.623 96.2556 591.623 100.006C591.623 102.331 593.223 104.431 595.623 105.631V107.506C595.623 108.481 596.423 109.306 597.623 109.606V109.756C597.623 111.032 598.923 112.007 600.623 112.007C602.323 112.007 603.623 111.032 603.623 109.756V109.606C604.823 109.306 605.623 108.481 605.623 107.506V105.631C608.023 104.431 609.623 102.331 609.623 100.006ZM593.623 100.006C593.623 97.0806 596.723 94.7555 600.623 94.7555C604.523 94.7555 607.623 97.0806 607.623 100.006C607.623 102.631 605.023 104.806 601.623 105.181V103.306L603.323 102.031C603.723 101.731 603.723 101.281 603.323 100.981C602.923 100.681 602.323 100.681 601.923 100.981L600.623 101.956L599.323 100.981C598.923 100.681 598.323 100.681 597.923 100.981C597.523 101.281 597.523 101.731 597.923 102.031L599.623 103.306V105.181C596.223 104.806 593.623 102.631 593.623 100.006ZM600.623 110.506C600.023 110.506 599.623 110.206 599.623 109.756H601.623C601.623 110.206 601.223 110.506 600.623 110.506ZM603.623 107.506C603.623 107.956 603.223 108.256 602.623 108.256H598.623C598.023 108.256 597.623 107.956 597.623 107.506V106.381C598.523 106.606 599.523 106.756 600.623 106.756C601.723 106.756 602.723 106.606 603.623 106.381V107.506Z" fill="white"/>
<g filter="url(#filter3_d_1_184)">
<path d="M393.907 87.255H366.476C362.691 87.255 359.623 89.5408 359.623 92.3604V112.794C359.623 115.613 362.691 117.899 366.476 117.899H393.907C397.692 117.899 400.761 115.613 400.761 112.794V92.3604C400.761 89.5408 397.692 87.255 393.907 87.255Z" fill="#F58A8A"/>
</g>
<g clip-path="url(#clip2_1_184)">
<path d="M386.623 99.2557H385.623V97.7556C385.623 95.6855 383.383 94.0054 380.623 94.0054C377.863 94.0054 375.623 95.6855 375.623 97.7556V99.2557H374.623C373.523 99.2557 372.623 99.9308 372.623 100.756V108.256C372.623 109.081 373.523 109.756 374.623 109.756H386.623C387.723 109.756 388.623 109.081 388.623 108.256V100.756C388.623 99.9308 387.723 99.2557 386.623 99.2557ZM380.623 106.006C379.523 106.006 378.623 105.331 378.623 104.506C378.623 103.681 379.523 103.006 380.623 103.006C381.723 103.006 382.623 103.681 382.623 104.506C382.623 105.331 381.723 106.006 380.623 106.006ZM383.723 99.2557H377.523V97.7556C377.523 96.473 378.913 95.4305 380.623 95.4305C382.333 95.4305 383.723 96.473 383.723 97.7556V99.2557Z" fill="white"/>
</g>
<g filter="url(#filter4_d_1_184)">
<path d="M567.907 10H540.476C536.691 10 533.623 12.2858 533.623 15.1054V35.5386C533.623 38.3583 536.691 40.6441 540.476 40.6441H567.907C571.692 40.6441 574.761 38.3583 574.761 35.5386V15.1054C574.761 12.2858 571.692 10 567.907 10Z" fill="#6FCF97"/>
</g>
<path d="M559.934 21.173H543.602V28.8286H559.934V21.173Z" fill="white"/>
<path d="M564.335 22.6964L560.731 23.8328V26.2011L564.335 27.3375H565.643V22.6964H564.335Z" fill="white"/>
<path d="M500.013 216.244C498.897 220.608 500.41 223.124 501.6 223.744C503.962 224.974 506.6 226.513 506.6 226.513C506.6 226.513 523.029 254.658 527.791 256.672C533.346 259.022 546.045 260.244 546.045 260.244L551.6 249.132C551.6 249.132 538.902 246.355 533.346 245.164C529.603 244.362 513.108 226.513 513.108 226.513L516.283 220.958H510.331C505.966 217.783 503.6 211.244 503.6 211.244C503.6 211.244 500.775 213.263 500.013 216.244Z" fill="url(#paint1_linear_1_184)"/>
<path d="M565.1 266.743C563.1 264.743 551.6 261.577 546.1 260.243L551.6 249.243C553.767 249.243 560.1 248.743 568.1 246.743C578.1 244.243 581.6 235.243 593.1 244.743C602.3 252.343 618.267 285.577 625.1 301.243C614.354 311.486 607.217 314.812 593.1 317.743C592.267 316.077 589.8 310.443 586.6 301.243C582.6 289.743 570.1 289.743 568.1 285.743C566.1 281.743 567.6 269.243 565.1 266.743Z" fill="url(#paint2_linear_1_184)"/>
<path d="M601.1 380.244C597.5 372.244 597.433 334.244 596.1 316.744C608.294 314.347 614.734 311.259 625.1 300.744C625.1 300.744 642.1 308.744 641.1 327.244C640.1 345.744 647.621 355.084 652.1 361.244C656.1 366.744 665.6 378.41 670.6 386.244L665.6 395.744C660.1 389.91 644 378.044 635.6 371.244C627.2 364.444 624.433 347.41 623.1 338.244C622.267 347.91 618.1 365.644 620.1 371.244C622.1 376.844 643.6 393.744 652.1 402.244L649.1 410.744C634.6 403.91 604.7 388.244 601.1 380.244Z" fill="url(#paint3_linear_1_184)"/>
<path d="M559.1 232.744C559.5 231.144 558.933 226.41 559.6 224.744C564.4 225.544 567.1 228.91 568.1 230.244C569.1 230.077 570.534 229.612 571.1 230.744C571.6 231.744 571.1 233.744 569.6 235.244L573.1 244.744C571.441 245.821 570.432 246.183 568.6 246.744C569.6 244.244 569.1 242.244 568.6 241.244C565 244.044 563.6 243.91 562.1 243.744L560.6 237.244L558.1 237.744C558.6 236.91 558.7 234.344 559.1 232.744Z" fill="url(#paint4_linear_1_184)"/>
<path d="M568.1 230.243C566.1 227.443 561.267 225.41 559.1 224.743C555.1 221.743 557.1 215.243 566.6 212.243C576.1 209.243 580.1 217.243 582.1 219.243C584.1 221.243 585.1 227.743 594.1 231.743C603.1 235.743 602.6 230.743 608.1 230.743C613.6 230.743 616.1 234.243 615.1 237.243C614.1 240.243 613.6 243.743 619.6 247.743C625.6 251.743 620.1 257.243 619.6 263.243C619.1 269.243 611.1 266.243 602.6 266.243C594.1 266.243 595.6 266.243 594.1 260.743C592.6 255.243 590.1 253.243 587.1 251.743C584.1 250.243 577.1 251.243 575.6 249.743C574.4 248.543 571.1 239.577 569.6 235.243C570.267 234.243 571.5 231.943 571.1 230.743C570.7 229.543 568.933 229.91 568.1 230.243Z" fill="#F2994A"/>
<path d="M549.1 290.744L573.1 289.244C575.9 289.644 580.6 293.077 582.6 294.744C581.933 296.244 580 299.244 577.6 299.244C575.2 299.244 557.6 296.244 549.1 294.744H547.1V287.244L549.1 290.744Z" fill="url(#paint5_linear_1_184)"/>
<path d="M547.1 298.244V281.244H538.6V298.244H547.1Z" fill="#F2C94C"/>
<path d="M665.6 424.744C663.2 424.344 653.433 415.077 649.1 410.744L652.1 402.244C654.1 403.077 658.3 404.544 659.1 405.744C660.1 407.244 668.6 425.244 665.6 424.744Z" fill="#5A98D0"/>
<path d="M677.6 413.744C676.4 411.744 669.1 402.077 665.6 395.744L670.6 386.244C672.933 388.244 673.1 388.244 675.6 391.744C676.763 393.371 679.1 416.244 677.6 413.744Z" fill="#5A98D0"/>
<path opacity="0.2" d="M626.1 323.744L623.1 338.744C623.6 344.244 626.6 357.744 631.6 367.244C625.6 348.244 627.6 334.077 626.1 323.744Z" fill="black"/>
<path d="M195.623 548.244L194.123 543.244L202.123 541.744C205.956 543.744 213.323 548.144 212.123 549.744C211.723 550.544 200.956 549.077 195.623 548.244Z" fill="#D06262"/>
<path d="M155.123 501.244L159.623 508.744C159.289 513.91 158.223 524.044 156.623 523.244C155.023 522.444 149.956 509.577 147.623 503.244L155.123 501.244Z" fill="#D06262"/>
<path d="M128.951 456.237C123.621 450.702 118.779 440.268 117.024 435.743C122.151 433.263 133.547 427.595 138.107 424.766C142.667 421.936 151.315 415.517 155.069 412.661C157.259 414.636 163.632 419.506 171.603 423.191C192.075 432.857 203.767 445.338 207.808 456.515C211.04 465.457 197.797 478.692 190.273 484.238C185.914 476.83 183.291 473.834 178.123 466.777L179.88 458.582L169.555 455.515C171.081 457.55 176.083 464.254 183.88 474.784C197.95 492.369 202.823 522.416 203.5 535.241C200.875 535.817 194.412 536.88 189.559 536.523C188.986 530.293 181.181 516.454 173.729 504.203C172.212 506.017 170.111 508.185 168.887 508.298C162.692 506.457 160.773 498.332 160.588 494.5L165.27 490.578C164.628 489.554 164.028 488.592 163.478 487.707C155.815 475.357 135.612 463.156 128.951 456.237Z" fill="#1F3F68"/>
<path d="M156.97 411.482C142.435 422.694 112.351 442.801 108.285 433.534C103.202 421.951 104.198 421.859 101.388 418.603C98.5781 415.347 97.8911 407.878 96.6205 404.983C95.982 403.527 90.8336 397.16 86.7179 389.324C86.7179 389.324 86.5943 389.097 86.3851 388.682C83.4631 382.98 81.1554 376.564 81.5351 370.72C81.8255 362.158 88.3388 356.635 88.3388 356.635C92.2206 352.496 95.8615 351.802 97.1226 351.913L97.1459 351.929C100.181 353.993 104.668 357.044 106.257 356.898C107.85 356.751 110.123 353.744 111.623 352.244C119.228 353.05 121.551 351.102 127.496 351.913C134.828 352.913 154.623 363.244 170.123 335.744C171.662 336.104 175.133 337.473 177.623 337.244C169.123 362.244 161.623 370.025 154.623 372.475C149.25 374.355 145.018 374.879 141.674 374.845C141.061 378.107 140.245 383.468 138.886 388.935C141.68 394.05 144.634 398.749 146.954 400.855C152.981 406.326 159.786 409.346 156.97 411.482Z" fill="white"/>
<path d="M156.684 441.133L170.099 455.967L179.88 458.582L179.296 463.155C181.541 460.27 184.419 453.344 177.968 448.716C171.517 444.087 161.091 441.732 156.684 441.133Z" fill="black" fill-opacity="0.2"/>
<path d="M165.247 490.557L173.546 504.355L172.189 505.986C170.964 503.588 167.748 501.373 165.03 499.113C162.855 497.304 162.399 494.166 162.443 492.823L165.247 490.557Z" fill="black" fill-opacity="0.2"/>
<path d="M126.689 415.272C112.492 413.766 95.2259 398.918 88.3677 391.683C104.226 405.789 122.654 409.618 128.492 407.574C133.162 405.94 136.742 393.77 138.623 388.744L142.421 395.247C143.093 402.549 140.887 416.778 126.689 415.272Z" fill="black" fill-opacity="0.2"/>
<path d="M121.589 387.121C118.442 387.696 110.296 380.795 106.641 377.449C120.096 387.258 120.123 382.244 137.123 370.244C136.384 371.316 129.123 385.744 121.589 387.121Z" fill="black" fill-opacity="0.2"/>
<path d="M142.123 372.744C140.41 372.4 138.919 371.82 137.123 370.244L138.623 366.744C138.456 365.91 138.223 364.044 138.623 363.244C139.023 362.444 140.623 361.577 141.123 361.244L140.623 363.744L143.123 360.744L147.123 364.244L146.623 367.744L143.623 369.244L142.123 372.744Z" fill="#F2994A"/>
<path d="M178.623 332.244L177.623 337.244C176.023 337.644 171.789 336.41 170.123 335.744C170.623 334.244 172.223 330.244 172.623 328.244C173.023 326.244 176.789 324.077 178.623 323.244H180.623L178.623 326.744V332.244Z" fill="#F2994A"/>
<path d="M94.6225 341.744C95.4225 343.344 97.6225 346.744 98.6225 348.244C99.2892 346.91 100.223 343.944 98.6225 342.744C97.0225 341.544 95.6225 339.577 95.1226 338.744C95.6226 338.41 96.9226 337.744 98.1226 337.744C97.3226 331.744 101.456 329.577 103.623 329.244L112.123 328.744L112.623 331.244C115.789 328.244 121.523 321.744 119.123 319.744C116.123 317.244 107.123 323.744 101.123 323.744C95.1226 323.744 92.6225 326.744 91.1225 329.744C89.6225 332.744 93.6225 339.744 94.6225 341.744Z" fill="#316099"/>
<path d="M106.123 357.244C104.523 357.244 99.9559 354.077 97.1226 352.244C98.4559 351.577 99.1226 349.044 99.1226 348.244C99.1226 347.244 100.123 343.244 99.1226 342.744C98.1226 342.244 95.1226 340.244 95.1226 339.244C95.1226 338.444 97.1226 338.244 98.1226 338.244C97.7892 336.577 97.7226 332.744 100.123 330.744C102.523 328.744 109.123 328.577 112.123 328.744C112.289 329.41 112.923 332.244 114.123 338.244C115.323 344.244 112.623 347.077 111.123 347.744L111.623 352.244C110.456 353.744 107.723 357.244 106.123 357.244Z" fill="#F2994A"/>
<path d="M202.123 541.744L201.623 535.744C198.091 536.69 195.994 536.857 192.123 536.744L194.123 543.244L202.123 541.744Z" fill="#98C3E8"/>
<path d="M159.623 508.744L165.623 506.744C162.944 503.666 162.043 501.911 161.123 498.744L155.123 501.244L159.623 508.744Z" fill="#98C3E8"/>
<rect opacity="0.8" x="186.623" y="261.244" width="266.284" height="189.301" rx="5" fill="url(#paint6_linear_1_184)"/>
<path d="M186.623 266.244C186.623 263.482 188.861 261.244 191.623 261.244H263.605V450.545H191.623C188.861 450.545 186.623 448.306 186.623 445.545V266.244Z" fill="white"/>
<circle cx="198.623" cy="273.244" r="4" fill="#FA9595"/>
<circle cx="211.623" cy="273.244" r="4" fill="#FDF397"/>
<circle cx="223.623" cy="273.244" r="4" fill="#C1FEBB"/>
<path opacity="0.4" fill-rule="evenodd" clip-rule="evenodd" d="M195.623 367.244H253.623V374.244H195.623V367.244ZM195.623 381.244H253.623V388.244H195.623V381.244ZM234.623 397.244H195.623V404.244H234.623V397.244Z" fill="#5A98D0"/>
<path opacity="0.1" fill-rule="evenodd" clip-rule="evenodd" d="M372.623 286.244H430.623V293.244H372.623V286.244ZM372.623 300.244H430.623V307.244H372.623V300.244ZM411.623 316.244H372.623V323.244H411.623V316.244Z" fill="black"/>
<g filter="url(#filter5_d_1_184)">
<rect x="178.623" y="287.244" width="81" height="50" rx="5" fill="#56CCF2"/>
</g>
<path d="M202.967 309.38C202.311 308.484 201.383 308.036 200.167 308.036C199.063 308.036 198.135 308.436 197.351 309.252C196.567 310.068 196.183 311.06 196.183 312.244C196.183 313.412 196.567 314.42 197.351 315.236C198.135 316.052 199.063 316.452 200.167 316.452C201.383 316.452 202.311 316.004 202.967 315.092V316.244H204.695V308.244H202.967V309.38ZM198.631 314.084C198.151 313.588 197.911 312.98 197.911 312.244C197.911 311.508 198.151 310.9 198.631 310.42C199.111 309.924 199.719 309.684 200.439 309.684C201.159 309.684 201.767 309.924 202.247 310.42C202.727 310.9 202.967 311.508 202.967 312.244C202.967 312.98 202.727 313.588 202.247 314.084C201.767 314.564 201.159 314.804 200.439 314.804C199.719 314.804 199.111 314.564 198.631 314.084ZM211.701 304.836C209.333 304.692 208.085 305.892 208.085 308.084V308.244H206.869V309.908H208.085V316.244H209.813V309.908H211.701V308.244H209.813V308.084C209.813 306.916 210.437 306.388 211.701 306.5V304.836ZM215.24 308.244H213.512V316.244H215.24V312.212C215.24 311.396 215.48 310.804 215.976 310.452C216.472 310.084 217.048 309.924 217.704 309.972V308.1C216.504 308.1 215.672 308.596 215.24 309.588V308.244ZM221.413 306.724C221.861 306.276 221.861 305.604 221.429 305.172C220.997 304.724 220.293 304.724 219.861 305.172C219.429 305.604 219.429 306.276 219.861 306.724C220.309 307.156 220.981 307.156 221.413 306.724ZM221.509 316.244V308.244H219.781V316.244H221.509ZM230.651 309.38C229.995 308.484 229.067 308.036 227.851 308.036C226.747 308.036 225.819 308.436 225.035 309.252C224.251 310.068 223.867 311.06 223.867 312.244C223.867 313.412 224.251 314.42 225.035 315.236C225.819 316.052 226.747 316.452 227.851 316.452C229.067 316.452 229.995 316.004 230.651 315.092V316.244H232.379V308.244H230.651V309.38ZM226.315 314.084C225.835 313.588 225.595 312.98 225.595 312.244C225.595 311.508 225.835 310.9 226.315 310.42C226.795 309.924 227.403 309.684 228.123 309.684C228.843 309.684 229.451 309.924 229.931 310.42C230.411 310.9 230.651 311.508 230.651 312.244C230.651 312.98 230.411 313.588 229.931 314.084C229.451 314.564 228.843 314.804 228.123 314.804C227.403 314.804 226.795 314.564 226.315 314.084ZM239.401 308.036C238.265 308.036 237.449 308.452 236.921 309.268V308.244H235.193V316.244H236.921V311.956C236.921 310.404 237.737 309.652 238.953 309.652C240.057 309.652 240.745 310.308 240.745 311.508V316.244H242.473V311.332C242.473 309.284 241.241 308.036 239.401 308.036Z" fill="white"/>
<rect x="280.623" y="279.244" width="79" height="77" rx="5" fill="#EB5757"/>
<g clip-path="url(#clip3_1_184)">
<path d="M311.623 304.244V332.244L333.623 318.244L311.623 304.244Z" fill="white"/>
</g>
<g filter="url(#filter6_d_1_184)">
<rect x="280.623" y="369.244" width="154" height="63" rx="5" fill="#6FCF97"/>
</g>
<path d="M294.123 414.244C303.623 407.744 307.623 399.244 325.623 399.244C343.623 399.244 345.202 409.244 356.123 409.244C369.123 409.244 381.623 389.744 395.623 389.744C409.623 389.744 413.123 399.744 420.623 400.244" stroke="black" stroke-opacity="0.1" stroke-width="2" stroke-linecap="round" stroke-linejoin="round"/>
<path d="M293.623 414.744C303.123 408.244 305.623 389.244 323.623 389.244C341.623 389.244 345.702 405.744 356.623 405.744C369.623 405.744 381.123 378.744 395.123 378.744C409.123 378.744 413.623 399.744 421.123 400.244" stroke="white" stroke-width="2" stroke-linecap="round" stroke-linejoin="round"/>
<defs>
<filter id="filter0_d_1_184" x="402.623" y="83.2435" width="188" height="188" filterUnits="userSpaceOnUse" color-interpolation-filters="sRGB">
<feFlood flood-opacity="0" result="BackgroundImageFix"/>
<feColorMatrix in="SourceAlpha" type="matrix" values="0 0 0 0 0 0 0 0 0 0 0 0 0 0 0 0 0 0 127 0" result="hardAlpha"/>
<feOffset/>
<feGaussianBlur stdDeviation="25"/>
<feColorMatrix type="matrix" values="0 0 0 0 0.0627451 0 0 0 0 0.439216 0 0 0 0 0.694118 0 0 0 0.25 0"/>
<feBlend mode="normal" in2="BackgroundImageFix" result="effect1_dropShadow_1_184"/>
<feBlend mode="normal" in="SourceGraphic" in2="effect1_dropShadow_1_184" result="shape"/>
</filter>
<filter id="filter1_d_1_184" x="395.761" y="0" width="71.1382" height="60.644" filterUnits="userSpaceOnUse" color-interpolation-filters="sRGB">
<feFlood flood-opacity="0" result="BackgroundImageFix"/>
<feColorMatrix in="SourceAlpha" type="matrix" values="0 0 0 0 0 0 0 0 0 0 0 0 0 0 0 0 0 0 127 0" result="hardAlpha"/>
<feOffset dx="5" dy="5"/>
<feGaussianBlur stdDeviation="7.5"/>
<feColorMatrix type="matrix" values="0 0 0 0 0 0 0 0 0 0 0 0 0 0 0 0 0 0 0.15 0"/>
<feBlend mode="normal" in2="BackgroundImageFix" result="effect1_dropShadow_1_184"/>
<feBlend mode="normal" in="SourceGraphic" in2="effect1_dropShadow_1_184" result="shape"/>
</filter>
<filter id="filter2_d_1_184" x="569.623" y="77.255" width="71.1382" height="60.644" filterUnits="userSpaceOnUse" color-interpolation-filters="sRGB">
<feFlood flood-opacity="0" result="BackgroundImageFix"/>
<feColorMatrix in="SourceAlpha" type="matrix" values="0 0 0 0 0 0 0 0 0 0 0 0 0 0 0 0 0 0 127 0" result="hardAlpha"/>
<feOffset dx="5" dy="5"/>
<feGaussianBlur stdDeviation="7.5"/>
<feColorMatrix type="matrix" values="0 0 0 0 0 0 0 0 0 0 0 0 0 0 0 0 0 0 0.15 0"/>
<feBlend mode="normal" in2="BackgroundImageFix" result="effect1_dropShadow_1_184"/>
<feBlend mode="normal" in="SourceGraphic" in2="effect1_dropShadow_1_184" result="shape"/>
</filter>
<filter id="filter3_d_1_184" x="349.623" y="77.255" width="71.1382" height="60.644" filterUnits="userSpaceOnUse" color-interpolation-filters="sRGB">
<feFlood flood-opacity="0" result="BackgroundImageFix"/>
<feColorMatrix in="SourceAlpha" type="matrix" values="0 0 0 0 0 0 0 0 0 0 0 0 0 0 0 0 0 0 127 0" result="hardAlpha"/>
<feOffset dx="5" dy="5"/>
<feGaussianBlur stdDeviation="7.5"/>
<feColorMatrix type="matrix" values="0 0 0 0 0 0 0 0 0 0 0 0 0 0 0 0 0 0 0.15 0"/>
<feBlend mode="normal" in2="BackgroundImageFix" result="effect1_dropShadow_1_184"/>
<feBlend mode="normal" in="SourceGraphic" in2="effect1_dropShadow_1_184" result="shape"/>
</filter>
<filter id="filter4_d_1_184" x="523.623" y="0" width="71.1382" height="60.644" filterUnits="userSpaceOnUse" color-interpolation-filters="sRGB">
<feFlood flood-opacity="0" result="BackgroundImageFix"/>
<feColorMatrix in="SourceAlpha" type="matrix" values="0 0 0 0 0 0 0 0 0 0 0 0 0 0 0 0 0 0 127 0" result="hardAlpha"/>
<feOffset dx="5" dy="5"/>
<feGaussianBlur stdDeviation="7.5"/>
<feColorMatrix type="matrix" values="0 0 0 0 0 0 0 0 0 0 0 0 0 0 0 0 0 0 0.15 0"/>
<feBlend mode="normal" in2="BackgroundImageFix" result="effect1_dropShadow_1_184"/>
<feBlend mode="normal" in="SourceGraphic" in2="effect1_dropShadow_1_184" result="shape"/>
</filter>
<filter id="filter5_d_1_184" x="173.623" y="282.244" width="101" height="70" filterUnits="userSpaceOnUse" color-interpolation-filters="sRGB">
<feFlood flood-opacity="0" result="BackgroundImageFix"/>
<feColorMatrix in="SourceAlpha" type="matrix" values="0 0 0 0 0 0 0 0 0 0 0 0 0 0 0 0 0 0 127 0" result="hardAlpha"/>
<feOffset dx="5" dy="5"/>
<feGaussianBlur stdDeviation="5"/>
<feColorMatrix type="matrix" values="0 0 0 0 0.0627451 0 0 0 0 0.439216 0 0 0 0 0.694118 0 0 0 0.2 0"/>
<feBlend mode="normal" in2="BackgroundImageFix" result="effect1_dropShadow_1_184"/>
<feBlend mode="normal" in="SourceGraphic" in2="effect1_dropShadow_1_184" result="shape"/>
</filter>
<filter id="filter6_d_1_184" x="270.623" y="363.244" width="174" height="83" filterUnits="userSpaceOnUse" color-interpolation-filters="sRGB">
<feFlood flood-opacity="0" result="BackgroundImageFix"/>
<feColorMatrix in="SourceAlpha" type="matrix" values="0 0 0 0 0 0 0 0 0 0 0 0 0 0 0 0 0 0 127 0" result="hardAlpha"/>
<feOffset dy="4"/>
<feGaussianBlur stdDeviation="5"/>
<feColorMatrix type="matrix" values="0 0 0 0 0.435294 0 0 0 0 0.811765 0 0 0 0 0.592157 0 0 0 0.2 0"/>
<feBlend mode="normal" in2="BackgroundImageFix" result="effect1_dropShadow_1_184"/>
<feBlend mode="normal" in="SourceGraphic" in2="effect1_dropShadow_1_184" result="shape"/>
</filter>
<linearGradient id="paint0_linear_1_184" x1="375.238" y1="-63.0752" x2="337.415" y2="607.75" gradientUnits="userSpaceOnUse">
<stop stop-color="#D1ECFF"/>
<stop offset="1" stop-color="#1070B1"/>
</linearGradient>
<linearGradient id="paint1_linear_1_184" x1="559.358" y1="223.819" x2="507.587" y2="257.638" gradientUnits="userSpaceOnUse">
<stop stop-color="#FFF8E1"/>
<stop offset="1" stop-color="#FFCC80"/>
</linearGradient>
<linearGradient id="paint2_linear_1_184" x1="585.6" y1="240.484" x2="585.6" y2="317.743" gradientUnits="userSpaceOnUse">
<stop stop-color="#AF6CED"/>
<stop offset="1" stop-color="#5E199D"/>
</linearGradient>
<linearGradient id="paint3_linear_1_184" x1="633.35" y1="300.744" x2="633.35" y2="410.744" gradientUnits="userSpaceOnUse">
<stop stop-color="#EB5757"/>
<stop offset="1" stop-color="#872727"/>
</linearGradient>
<linearGradient id="paint4_linear_1_184" x1="575.339" y1="230.39" x2="557.218" y2="237.998" gradientUnits="userSpaceOnUse">
<stop stop-color="#FFF8E1"/>
<stop offset="1" stop-color="#FFCC80"/>
</linearGradient>
<linearGradient id="paint5_linear_1_184" x1="587.899" y1="290.323" x2="576.218" y2="311.603" gradientUnits="userSpaceOnUse">
<stop stop-color="#FFF8E1"/>
<stop offset="1" stop-color="#FFCC80"/>
</linearGradient>
<linearGradient id="paint6_linear_1_184" x1="193.016" y1="330.399" x2="498.516" y2="363.899" gradientUnits="userSpaceOnUse">
<stop offset="0.127122" stop-color="white"/>
<stop offset="0.972261" stop-color="white" stop-opacity="0.8"/>
</linearGradient>
<clipPath id="clip0_1_184">
<rect width="48" height="48" fill="white" transform="translate(472.623 153.244)"/>
</clipPath>
<clipPath id="clip1_1_184">
<rect width="24" height="18.0012" fill="white" transform="translate(414.623 16.0004)"/>
</clipPath>
<clipPath id="clip2_1_184">
<rect width="24" height="18.0012" fill="white" transform="translate(368.623 93.2554)"/>
</clipPath>
<clipPath id="clip3_1_184">
<rect width="48" height="48" fill="white" transform="translate(295.623 294.244)"/>
</clipPath>
</defs>
</svg>
